<svg width="128" height="40" xmlns="http://www.w3.org/2000/svg"><path d="M15.313.734a5.48 5.48 0 015.478 0l12.574 7.26a5.48 5.48 0 012.739 4.745v14.52a5.481 5.481 0 01-2.74 4.747l-12.573 7.26a5.474 5.474 0 01-5.478 0L2.74 32.005A5.48 5.48 0 010 27.26V12.74a5.478 5.478 0 012.74-4.746zm45.243 27.218c.168 0 .345.012.53.035.184.023.322.048.415.073h2.058v.692l-1.016.188a1.822 1.822 0 01.322 1.042c0 .613-.21 1.094-.633 1.445-.423.351-1.004.527-1.746.527a2.83 2.83 0 01-.515-.043c-.272.168-.408.365-.408.59 0 .137.063.239.19.307s.36.102.701.102h1.037c.655 0 1.153.14 1.493.419.34.279.51.682.51 1.208 0 .673-.277 1.192-.832 1.558-.555.365-1.357.548-2.407.548-.809 0-1.427-.144-1.853-.43-.426-.287-.639-.695-.639-1.225a1.3 1.3 0 01.347-.92c.23-.25.554-.422.97-.52a.949.949 0 01-.417-.346.875.875 0 01-.164-.502c0-.222.063-.41.188-.564.125-.154.312-.306.559-.456a1.655 1.655 0 01-.75-.648 1.904 1.904 0 01-.287-1.05c0-.644.203-1.144.61-1.498.406-.355.985-.532 1.737-.532zm.473 6.027h-.956c-.362 0-.65.085-.862.255-.213.17-.32.4-.32.69 0 .272.123.481.368.628.245.147.59.22 1.034.22.687 0 1.2-.098 1.536-.295.337-.197.505-.458.505-.784 0-.258-.092-.441-.277-.55-.184-.11-.527-.164-1.028-.164zm-6.73-6.027c.86 0 1.54.277 2.04.83.502.553.753 1.299.753 2.237 0 .97-.25 1.728-.747 2.272-.498.544-1.19.816-2.078.816-.555 0-1.046-.125-1.472-.376a2.482 2.482 0 01-.983-1.08c-.23-.468-.344-1.012-.344-1.632 0-.963.247-1.715.741-2.256.495-.54 1.191-.81 2.09-.81zm-11.134-2.31v1.988c0 .147-.008.365-.022.655a18.3 18.3 0 01-.032.553h.054c.4-.59.991-.886 1.772-.886.741 0 1.319.269 1.732.806.414.537.62 1.29.62 2.261 0 .974-.209 1.732-.628 2.275-.419.542-1 .813-1.745.813-.752 0-1.336-.27-1.751-.81h-.086l-.231.703h-.946v-8.357h1.263zm6.853 0V34h-1.262v-8.357h1.262zm4.26 3.341c-.53 0-.915.176-1.153.527-.238.35-.357.854-.357 1.509 0 1.371.507 2.057 1.52 2.057 1.003 0 1.504-.686 1.504-2.057 0-1.357-.505-2.036-1.515-2.036zm-9.669 0c-.508 0-.874.15-1.098.449-.224.299-.34.8-.346 1.501v.086c0 .723.114 1.247.343 1.571.23.324.604.486 1.123.486.447 0 .787-.177 1.018-.532.23-.354.346-.866.346-1.536 0-1.35-.462-2.025-1.386-2.025zm15.936-.22c-.365 0-.641.104-.83.312-.187.207-.281.51-.281.907 0 .373.095.66.287.86.192.2.466.3.824.3.73 0 1.096-.39 1.096-1.17 0-.387-.09-.685-.271-.895-.181-.21-.456-.314-.825-.314zM18.796 12.61h-.392a8.36 8.36 0 00-2.315.309 5.832 5.832 0 00-1.852.885 4.33 4.33 0 00-1.232 1.36 3.789 3.789 0 00-.073 3.407c.239.465.57.877.973 1.21.42.345.888.628 1.389.84.51.224 1.038.407 1.578.547.65.178 1.185.335 1.607.472.34.104.672.237.989.399.196.092.364.235.487.413a.926.926 0 01.132.486c0 .455-.206.76-.62.915a4.435 4.435 0 01-1.563.231 6.103 6.103 0 01-2.139-.413 5.44 5.44 0 01-1.785-1.033l-2.094 2.715c.688.694 1.582 1.206 2.682 1.535 1.14.34 2.322.51 3.511.502a9.63 9.63 0 002.257-.266 6.559 6.559 0 001.976-.81A4.29 4.29 0 0023.7 24.94a3.658 3.658 0 00.516-1.978c0-1.143-.318-2.057-.958-2.744-.64-.687-1.667-1.227-3.083-1.62a34.04 34.04 0 01-2.478-.74c-.61-.215-.914-.549-.914-1.002a.855.855 0 01.442-.752c.295-.187.767-.28 1.415-.28.671-.01 1.338.11 1.962.354a9.08 9.08 0 011.547.796l1.8-2.804a8.8 8.8 0 00-2.448-1.164 10.8 10.8 0 00-3.098-.398zm51.568-3.147c.345.448.603.957.761 1.5.17.564.255 1.151.254 1.741a5.24 5.24 0 01-.429 2.201 4.561 4.561 0 01-1.113 1.538 4.503 4.503 0 01-1.543.896 5.275 5.275 0 01-1.702.292 4.264 4.264 0 01-1.094-.12 22.98 22.98 0 01-.781-.235v3.953H61.92l.013-13.022h2.695c.026.169.045.333.058.496l.04.497c.304-.381.7-.68 1.152-.867.46-.199.957-.302 1.458-.302 1.18-.032 2.306.5 3.027 1.432zm29.236 0c.345.448.603.957.76 1.5.17.564.255 1.151.255 1.741a5.24 5.24 0 01-.43 2.201 4.561 4.561 0 01-1.113 1.538 4.5 4.5 0 01-1.539.896 5.276 5.276 0 01-1.702.292 4.263 4.263 0 01-1.094-.12 25.82 25.82 0 01-.781-.235v3.953H91.16l.006-13.022h2.695c.025.169.045.333.058.496l.04.497c.304-.38.7-.679 1.151-.867.46-.199.957-.302 1.46-.302a3.698 3.698 0 013.03 1.432zM45.433 7.887a7.203 7.203 0 012.051.273 5.837 5.837 0 011.62.77l-1.19 1.85a6.087 6.087 0 00-1.026-.527 3.438 3.438 0 00-1.298-.232c-.429 0-.743.061-.937.184a.564.564 0 00-.293.497c0 .298.203.519.608.662.405.143.952.304 1.64.485.936.259 1.617.616 2.04 1.07.425.454.636 1.058.635 1.81.013.46-.106.915-.344 1.31a2.844 2.844 0 01-.918.905 4.33 4.33 0 01-1.308.536c-.489.117-.99.176-1.494.176a8.024 8.024 0 01-2.324-.331 4.174 4.174 0 01-1.777-1.013l1.387-1.798c.346.3.748.532 1.182.682.451.175.93.267 1.414.272a2.94 2.94 0 001.036-.156.591.591 0 00.41-.607.614.614 0 00-.088-.32.826.826 0 00-.322-.273 4.067 4.067 0 00-.654-.263c-.28-.091-.636-.194-1.065-.312a7.11 7.11 0 01-1.044-.364c-.33-.14-.64-.327-.918-.555a2.532 2.532 0 01-.644-.799 2.492 2.492 0 01.049-2.248c.202-.353.478-.658.81-.896a3.866 3.866 0 011.23-.584 5.56 5.56 0 011.532-.204zm68.642.011a5.05 5.05 0 011.991.38 4.644 4.644 0 012.55 2.589 5.174 5.174 0 010 3.797 4.717 4.717 0 01-2.553 2.599 4.952 4.952 0 01-1.991.39 5.032 5.032 0 01-2.003-.39 4.757 4.757 0 01-1.552-1.05 4.791 4.791 0 01-1.005-1.549 4.98 4.98 0 01-.361-1.898c-.004-.65.12-1.296.364-1.9a4.792 4.792 0 011.006-1.547c.44-.449.97-.803 1.552-1.041a5.136 5.136 0 012.002-.38zm-36.714-.003a4.604 4.604 0 011.953.386c.546.25 1.03.62 1.415 1.08.398.488.694 1.051.869 1.656.201.686.3 1.398.293 2.113v.466h-6.522c.012.493.23.925.654 1.296.424.371 1.006.556 1.748.554.73 0 1.322-.107 1.777-.321.349-.154.682-.34.996-.554l1.152 1.773c-.104.066-.26.173-.469.321a4.316 4.316 0 01-.81.44 7.45 7.45 0 01-1.181.379 6.681 6.681 0 01-1.563.166 5.852 5.852 0 01-2.11-.364 4.572 4.572 0 01-1.59-1.005 4.217 4.217 0 01-.995-1.543 5.625 5.625 0 01-.342-1.996 5.34 5.34 0 01.322-1.84 4.63 4.63 0 01.928-1.548c.417-.45.922-.812 1.484-1.06a4.773 4.773 0 011.991-.4zm-23.608.311v5.257c0 .519.127.928.38 1.227.254.299.628.448 1.122.447a1.69 1.69 0 00.763-.165c.443-.217.776-.61.917-1.081.08-.245.12-.501.122-.759V8.206h2.796v9.132H57.15l-.08-.97a3.395 3.395 0 01-1.18.867 3.601 3.601 0 01-1.533.34c-1.053 0-1.887-.31-2.5-.934-.614-.623-.92-1.544-.918-2.765v-5.67h2.813zm53.877-.176c.212-.002.424.011.635.04.177.026.35.072.517.136l-.45 2.473a3.371 3.371 0 00-1.014-.137c-.664 0-1.201.198-1.611.594-.41.396-.615.957-.615 1.685v4.517h-2.818V8.206h2.695l.097 1.148a4.21 4.21 0 01.973-.896c.41-.285.94-.428 1.591-.428zm-18.782 0c.212-.002.424.011.634.04.177.026.35.072.517.136l-.449 2.473a3.37 3.37 0 00-1.015-.137c-.664 0-1.2.198-1.612.594-.41.396-.616.957-.615 1.685v4.517h-2.816V8.206h2.695l.097 1.148c.275-.348.603-.65.972-.896.41-.285.94-.428 1.592-.428zM125.11 4a5.53 5.53 0 011.504.215c.51.144.983.396 1.386.739a38.63 38.63 0 01-.596.886c-.202.292-.4.588-.595.886a2.299 2.299 0 00-.645-.33 2.248 2.248 0 00-.722-.122 1.23 1.23 0 00-.937.37c-.234.243-.351.594-.351 1.052v.506h2.167v2.2h-2.167v6.933h-2.796l.001-6.929h-1.484v-2.2h1.484v-.468a3.975 3.975 0 01.322-1.674 3.36 3.36 0 012.052-1.84A4.342 4.342 0 01125.11 4zm-58.446 6.42a1.811 1.811 0 00-1.438.642 2.02 2.02 0 00-.37.662 2.321 2.321 0 00-.122.76l-.004 2.44c.365.242.905.363 1.622.363.688 0 1.232-.23 1.63-.69.398-.461.596-1.075.595-1.84a3.6 3.6 0 00-.108-.877 2.236 2.236 0 00-.332-.75 1.66 1.66 0 00-.586-.515 1.85 1.85 0 00-.887-.196zm29.232 0a1.81 1.81 0 00-1.438.642 2.04 2.04 0 00-.371.662 2.321 2.321 0 00-.122.76l-.003 2.44c.364.242.905.363 1.621.363.69 0 1.233-.23 1.63-.69.398-.461.596-1.075.596-1.84 0-.296-.036-.59-.107-.877a2.26 2.26 0 00-.333-.75 1.668 1.668 0 00-.585-.515 1.858 1.858 0 00-.888-.196zm18.176-.088a2.142 2.142 0 00-.947.204 1.986 1.986 0 00-.693.545 2.475 2.475 0 00-.42.78 2.883 2.883 0 000 1.81c.093.285.235.552.42.788.184.237.421.427.693.556.296.138.62.207.947.2v.004c.324.006.645-.064.937-.204.269-.133.505-.322.693-.556.188-.234.331-.5.42-.787a3.072 3.072 0 000-1.811 2.275 2.275 0 00-.42-.78 2.129 2.129 0 00-.693-.545 2.08 2.08 0 00-.937-.204zm-36.735-.257a2.09 2.09 0 00-.858.165c-.23.099-.44.241-.615.42a1.8 1.8 0 00-.372.553c-.08.188-.12.39-.122.594h3.866a1.65 1.65 0 00-.122-.594c-.08-.205-.2-.393-.351-.554a1.884 1.884 0 00-.586-.419 1.956 1.956 0 00-.84-.165z" fill="#FA6484" fill-rule="evenodd"/></svg>